<?xml version="1.0" ?><svg data-name="Layer 1" id="Layer_1" viewBox="0 0 256 256" xmlns="http://www.w3.org/2000/svg"><defs></defs><title/><path class="cls-1" d="M233.12,134.66c-4.45-5.68-12-8.49-16-8.67a21.89,21.89,0,0,1-6.42-1.84c.4-4,1.24-12,2.13-18A34.42,34.42,0,0,1,219.78,89c5.45-7.72,10-26.92,2.39-43.62C217.28,34.58,205.48,21.13,177,18.17c-58.31-6.07-75.8,52-75.91,52.41-.21.6-5,14.86,2.51,36.54a3.45,3.45,0,1,0,6.52-2.27c-6.7-19.24-2.55-31.87-2.45-32.16.63-2.17,16.13-53.11,68.62-47.65,20.26,2.11,33.59,9.9,39.6,23.15a41.43,41.43,0,0,1,3,22.09c-11.8-1.07-23.63-10.15-30.54-19.28a111.39,111.39,0,0,1-8.65-13.24,3.46,3.46,0,0,0-6.1,3.25,116.15,116.15,0,0,0,8.86,13.64c-10.34,5.1-40.84,18.69-63.54,14.11a3.45,3.45,0,1,0-1.37,6.77c.64.13,1.31.18,2,.29-4.69,7.78-.9,21.78,3.13,32.21a3.83,3.83,0,0,0,.37.69c.28.42,2.88,4.09,7.07,4.55a7.66,7.66,0,0,0,.86,0,8.83,8.83,0,0,0,6.14-2.66,3.45,3.45,0,0,0-4.73-5,2.42,2.42,0,0,1-1.5.78,3.71,3.71,0,0,1-1.93-1.32c-4.6-12-5.92-21.9-3.45-25.81a4.24,4.24,0,0,1,3.7-1.94c2.41-.17,4.15.27,5.23,1.34,1.53,1.51,1.72,4.21,1.67,5.12a3.45,3.45,0,0,0,6.89.51,15.1,15.1,0,0,0-2.18-8.64C161,72.72,180.4,63.49,187,60.1c7.51,8,18.5,15.65,30.51,17A27.14,27.14,0,0,1,214.14,85a55.31,55.31,0,0,0-4,6.37,35.57,35.57,0,0,1-4.27-6.54,3.46,3.46,0,0,0-6.26,2.94,42.25,42.25,0,0,0,7.74,10.76,55.7,55.7,0,0,0-1.3,6.24l-1.52-.91a3.45,3.45,0,0,0-3.58,5.91l4.09,2.47c-.4,3.32-.75,6.59-1,9.11a55.62,55.62,0,0,0-6.36-1.51c2.48-8.81-2.56-20.13-3.27-21.63a3.45,3.45,0,0,0-6.26,2.92c1.5,3.21,4.72,12.57,2.53,17.73a227.47,227.47,0,0,0-31.1-.67c-.35,0-34.39,2.54-53.1,2.75-12.63.16-21.07-4.29-28-7.85a44.2,44.2,0,0,0-8.34-3.67c-5.08-1.36-9.22-.92-12.3,1.34A10.78,10.78,0,0,0,54,116.25a8.33,8.33,0,0,0-4.67,2.12c-2.43,2.36-2.9,6-1.46,10.84a6.42,6.42,0,0,0-2.17,2.66c-.89,2.23-.37,4.63,1.51,7.14a5.91,5.91,0,0,0-2.2,5.16c.12,1.1.52,4.42,3.18,6.49a8.51,8.51,0,0,0,4.31,1.63,6.44,6.44,0,0,0,2.78,3.05,8,8,0,0,0,1.61.66l-5.72,2a15,15,0,0,0-5.47,1.9c-15.38,8.7-25.12,44.53-26.18,48.58a3.45,3.45,0,0,0,.29,2.5,22.91,22.91,0,0,0,5.6,6.43c-.22,3.4-.57,10.73.18,14.7A3.45,3.45,0,0,0,29,234.94a3.55,3.55,0,0,0,.64-.06,3.46,3.46,0,0,0,2.76-4,47.83,47.83,0,0,1-.27-8.66c14.78,9.14,37,16.09,41.37,16.09a2.54,2.54,0,0,0,.43,0,3.63,3.63,0,0,0,2.9-3h0c4.78-39-10.92-65.1-16.57-73.06L79,155.53c6.61.69,15.58,1.31,19.17,0,1.5-.54,5.62-.93,11.64-.67,1.71,8.13,8.8,30.38,35.15,30.38h0c25.06,0,34.76-12.54,37.82-18l3.23.3c1.29,6.54,4,11.39,8.13,14.43a17.11,17.11,0,0,0,10.17,3.31,14,14,0,0,0,1.7-.1,36.35,36.35,0,0,0,11.75-2.29c-2.1,4.34-4.55,8.72-6.88,11.36-1.37,1.31-10,10.25-6.11,23.51,1.47,5,1.42,5.32,1,8.64-.21,1.47-.48,3.4-.74,6.28a3.45,3.45,0,0,0,3.14,3.74l.31,0a3.46,3.46,0,0,0,3.44-3.15c.24-2.71.5-4.53.69-5.92.59-4.17.66-5.39-1.17-11.57a16.75,16.75,0,0,1,4.28-16.57,3.19,3.19,0,0,0,.26-.26c6.64-7.39,12.84-24.12,13.26-25.26,4.29-6.52,5.37-14.52,6.15-20.47.27-2,.51-3.87.84-5.52A15.56,15.56,0,0,0,233.12,134.66ZM70.37,230.78c-9.52-2.54-37-12.25-43.76-21.93,3.1-11.18,12.09-37,22.53-42.92a7.26,7.26,0,0,1,4.57-1.05C57.31,169.72,73.67,194,70.37,230.78ZM145,178.34h0c-19.78,0-26.07-15.32-28-22.93a148.65,148.65,0,0,1,24.77,4.86c9.9,2.8,22.35,4.78,33.36,6.09C171.49,171.08,163,178.32,145,178.34Zm84.46-32c-.36,1.79-.63,3.82-.91,6-1.55,11.8-3.31,25.16-22.92,25.94l-.41,0a10,10,0,0,1-7-2c-2.27-1.72-3.92-4.48-4.92-8.23,3.44.23,6.08.35,7.44.35a6.34,6.34,0,0,0,.94,0,3.57,3.57,0,0,0,3-4,3.33,3.33,0,0,0-3.83-2.86c-2.74.16-36.15-2-57.18-7.92-22.16-6.27-42-6.69-47.82-4.58-1.91.7-9.42.33-16.9-.48h-.1c-1.78-.19-3.56-.41-5.25-.64a3.49,3.49,0,0,0-1.47.11A40.79,40.79,0,0,1,60,149.88a10,10,0,0,1,2.83-1.44,3.46,3.46,0,0,0-2.29-6.52,15.63,15.63,0,0,0-6,3.52,3.74,3.74,0,0,1-2.15-.25c-.06,0-.29-.26-.47-1.2,1.08-.93,4.43-2.34,7.43-3.09a3.45,3.45,0,1,0-1.66-6.7,41.81,41.81,0,0,0-4.44,1.36,7.73,7.73,0,0,1-.93-1.2c1.5-.86,6.08-1.51,10.09-1.37a3.46,3.46,0,1,0,.23-6.91,42.18,42.18,0,0,0-8.37.56c-.58-2.22-.31-3.17-.16-3.31.8-.78,4.86-.3,8,1a3.46,3.46,0,0,0,2.56-6.42,32,32,0,0,0-3.32-1,2.89,2.89,0,0,1,.57-.53c1.63-1.17,4.36-.76,6.38-.22a41,41,0,0,1,7,3.14c7.17,3.7,17,8.72,31.2,8.61,18.94-.21,53.19-2.73,53.46-2.75s17.16-.86,31.12.75a3.33,3.33,0,0,0,1.31.29,1.87,1.87,0,0,0,.34-.08,49.45,49.45,0,0,1,11.07,2.53c1.38.73,7.94,4.11,12.95,4.34a17.92,17.92,0,0,1,10.86,6A8.63,8.63,0,0,1,229.46,146.32Z"/><path class="cls-1" d="M177.76,99.92c-3.23,1.71-9.42.37-11.33-.24a3.45,3.45,0,1,0-2.1,6.58,31.94,31.94,0,0,0,9,1.41A16.33,16.33,0,0,0,181,106a3.45,3.45,0,0,0-3.23-6.1Z"/><path class="cls-1" d="M191,79.67a3.46,3.46,0,0,0-4.88.23c-5.17,5.68-17.28,6.95-21.51,7a3.46,3.46,0,0,0,0,6.91c.74,0,18.32-.11,26.61-9.22A3.46,3.46,0,0,0,191,79.67Z"/></svg>